<svg width="70" height="40" viewBox="0 0 70 40" fill="none" xmlns="http://www.w3.org/2000/svg">
<path d="M9.58461 12.8611C13.5016 12.8611 16.6774 16.0566 16.6774 19.998C16.6774 23.9394 13.5016 27.135 9.58461 27.135C5.66672 27.135 2.49097 23.9394 2.49097 19.998C2.49097 16.0566 5.66672 12.8611 9.58461 12.8611Z" fill="#00AED6"/>
<path fill-rule="evenodd" clip-rule="evenodd" d="M13.721 19.7786C13.6666 18.8698 12.8985 18.1733 11.9947 18.2143H7.51422C7.35079 18.2143 7.21862 18.0812 7.21862 17.9164C7.21862 17.7525 7.35079 17.6193 7.51422 17.6193H12.0537C12.0278 17.0039 11.6098 16.475 11.0195 16.3111C9.69599 16.0728 8.3412 16.0728 7.01768 16.3111C6.26571 16.4973 5.70308 17.1268 5.59949 17.8987C5.39229 19.2991 5.39229 20.7218 5.59949 22.1212C5.75756 22.9388 6.40235 23.571 7.21862 23.7097C8.85918 23.9174 10.5194 23.9174 12.16 23.7097C12.8914 23.5607 13.4442 22.9565 13.5317 22.2106C13.6817 21.4089 13.7452 20.5933 13.721 19.7786ZM12.243 20.7777V21.0393C12.243 21.2032 12.1108 21.3363 11.9474 21.3363C11.784 21.3363 11.6518 21.2032 11.6518 21.0393V20.7777C11.5562 20.6939 11.5027 20.5719 11.5045 20.4443C11.5045 20.1976 11.7027 19.9983 11.9474 19.9983C12.1921 19.9983 12.3904 20.1976 12.3904 20.4443C12.3895 20.571 12.3359 20.692 12.243 20.7777Z" fill="white"/>
<path d="M36.883 19.1957C36.8928 17.9443 35.8926 16.922 34.6485 16.9117C33.4045 16.9024 32.3891 17.908 32.3793 19.1594C32.3694 20.4108 33.3697 21.4341 34.6137 21.4434C34.6253 21.4434 34.6369 21.4434 34.6485 21.4434C35.8283 21.5077 36.8366 20.5961 36.9 19.409C36.9035 19.3382 36.9035 19.2665 36.9009 19.1957H36.883ZM30.1921 19.1957C30.1921 16.8168 32.0595 15.003 34.6485 15.003C37.2376 15.003 39.1059 16.8279 39.1059 19.1957C39.1059 21.5626 37.2554 23.3941 34.6485 23.3941C32.0417 23.3941 30.1921 21.5682 30.1921 19.1957Z" fill="black"/>
<path d="M26.6412 19.6299C26.6412 20.6113 25.6481 21.4139 24.3898 21.4139C23.2333 21.5322 22.2009 20.6839 22.0839 19.52C22.0723 19.4027 22.0705 19.2845 22.0785 19.1662C22.0785 17.8692 23.0243 16.9772 24.4782 16.9772C25.6606 16.9772 26.6412 17.7919 26.6412 18.7137V19.6299ZM26.7296 14.9967V15.9362C26.0107 15.2788 25.0578 14.9427 24.0879 15.0032C21.7945 15.0237 19.953 16.912 19.9736 19.2193C19.995 21.5266 21.8713 23.3804 24.1647 23.359C25.1087 23.4018 26.0277 23.0461 26.7001 22.3776V23.1802C26.7001 24.2687 25.7669 25.0657 24.5371 25.0657C23.5985 25.1337 22.6733 24.8069 21.9839 24.1616L20.5469 25.5536C21.6239 26.6169 23.0877 27.1886 24.5961 27.1356C27.1145 27.1356 28.8399 25.4344 28.8399 23.169V14.9967H26.7296Z" fill="black"/>
<path d="M40.405 15.24H42.5207V15.9421H42.5502C43.2441 15.3052 44.1604 14.9719 45.0981 15.0138C47.4013 15.1013 49.1982 17.051 49.1116 19.3676C49.0294 21.5632 47.2799 23.323 45.0981 23.4058C44.2024 23.4263 43.328 23.1302 42.627 22.5669V26.54H40.4229L40.405 15.24ZM44.7552 16.9765C43.5727 16.9765 42.61 17.8034 42.61 18.7019V19.7065C42.61 20.6637 43.5611 21.4552 44.7668 21.4552C45.9965 21.5185 47.0441 20.5678 47.1075 19.3313C47.1709 18.0948 46.226 17.0408 44.9963 16.9765C44.9204 16.9728 44.8436 16.9728 44.7668 16.9765H44.7552Z" fill="black"/>
<path d="M53.3438 18.4283C54.7923 18.2318 55.2237 18.0232 55.2237 17.6191C55.2237 17.0958 54.6744 16.7802 53.8225 16.7802C52.9053 16.7048 52.0702 17.3137 51.8541 18.2141L49.7742 17.7793C50.0698 16.1619 51.7246 15.0083 53.7635 15.0083C56.0694 15.0083 57.4992 16.1973 57.4992 18.1247V23.1741H55.5193V22.2942H55.4898C54.8182 23.0549 53.8332 23.459 52.824 23.3883C51.0798 23.3883 49.8679 22.4302 49.8679 21.0093C49.8679 19.5875 50.861 18.7728 53.3438 18.4283ZM55.4014 19.2663H55.3719C55.1763 19.5521 54.7807 19.7188 53.6867 19.9087C52.3926 20.1527 51.914 20.4087 51.914 20.8724C51.914 21.3361 52.298 21.5624 53.1312 21.5624C54.4021 21.5624 55.3835 20.9674 55.3835 20.2123L55.4014 19.2663Z" fill="black"/>
<path d="M61.4918 22.728L57.8445 15.2401H60.2745L62.6679 20.4263H62.7037L65.0676 15.2401H67.5093L62.0473 26.54H59.6181L61.4918 22.728Z" fill="black"/>
</svg>
