<svg width="12" height="12" viewBox="0 0 12 12" fill="none" xmlns="http://www.w3.org/2000/svg">
<path d="M7.99023 6L10.9753 3.01496C11.3416 2.64865 11.3416 2.05474 10.9753 1.68814L10.3119 1.02473C9.94555 0.658423 9.35165 0.658423 8.98504 1.02473L6 4.00977L3.01496 1.02473C2.64865 0.658423 2.05474 0.658423 1.68814 1.02473L1.02473 1.68814C0.658423 2.05445 0.658423 2.64835 1.02473 3.01496L4.00977 6L1.02473 8.98504C0.658423 9.35135 0.658423 9.94526 1.02473 10.3119L1.68814 10.9753C2.05445 11.3416 2.64865 11.3416 3.01496 10.9753L6 7.99023L8.98504 10.9753C9.35135 11.3416 9.94555 11.3416 10.3119 10.9753L10.9753 10.3119C11.3416 9.94555 11.3416 9.35165 10.9753 8.98504L7.99023 6Z" fill="#999999"/>
</svg>
