<svg width="12" height="12" viewBox="0 0 12 12" fill="none" xmlns="http://www.w3.org/2000/svg">
<circle cx="6" cy="6" r="5.5" fill="#50A718" stroke="#00559A"/>
<g clip-path="url(#clip0_566_13559)">
<path d="M8.16663 8.00004H3.83329C3.74163 8.00004 3.66663 8.07504 3.66663 8.16671V8.50004C3.66663 8.59171 3.74163 8.66671 3.83329 8.66671H8.16663C8.25829 8.66671 8.33329 8.59171 8.33329 8.50004V8.16671C8.33329 8.07504 8.25829 8.00004 8.16663 8.00004ZM8.83329 4.66671C8.55725 4.66671 8.33329 4.89067 8.33329 5.16671C8.33329 5.24067 8.34996 5.30942 8.37913 5.37296L7.62496 5.82504C7.46454 5.92087 7.25725 5.86671 7.16454 5.70421L6.31558 4.21879C6.42704 4.12712 6.49996 3.98962 6.49996 3.83337C6.49996 3.55733 6.276 3.33337 5.99996 3.33337C5.72392 3.33337 5.49996 3.55733 5.49996 3.83337C5.49996 3.98962 5.57288 4.12712 5.68433 4.21879L4.83538 5.70421C4.74267 5.86671 4.53433 5.92087 4.37496 5.82504L3.62183 5.37296C3.64996 5.31046 3.66767 5.24067 3.66767 5.16671C3.66767 4.89067 3.44371 4.66671 3.16767 4.66671C2.89163 4.66671 2.66663 4.89067 2.66663 5.16671C2.66663 5.44275 2.89058 5.66671 3.16663 5.66671C3.19371 5.66671 3.22079 5.66254 3.24683 5.65837L3.99996 7.66671H7.99996L8.75308 5.65837C8.77913 5.66254 8.80621 5.66671 8.83329 5.66671C9.10933 5.66671 9.33329 5.44275 9.33329 5.16671C9.33329 4.89067 9.10933 4.66671 8.83329 4.66671Z" fill="white"/>
</g>
<defs>
<clipPath id="clip0_566_13559">
<rect width="6.66667" height="6.66667" fill="white" transform="translate(2.66663 2.66669)"/>
</clipPath>
</defs>
</svg>
