<svg width="24" height="24" viewBox="0 0 24 24" fill="none" xmlns="http://www.w3.org/2000/svg">
<circle cx="12" cy="12" r="11.5" fill="#50A718" stroke="#E1F0FF"/>
<g clip-path="url(#clip0_747_14908)">
<path d="M16.3333 16H7.66659C7.48325 16 7.33325 16.15 7.33325 16.3333V17C7.33325 17.1833 7.48325 17.3333 7.66659 17.3333H16.3333C16.5166 17.3333 16.6666 17.1833 16.6666 17V16.3333C16.6666 16.15 16.5166 16 16.3333 16ZM17.6666 9.33329C17.1145 9.33329 16.6666 9.78121 16.6666 10.3333C16.6666 10.4812 16.6999 10.6187 16.7583 10.7458L15.2499 11.65C14.9291 11.8416 14.5145 11.7333 14.3291 11.4083L12.6312 8.43746C12.8541 8.25413 12.9999 7.97913 12.9999 7.66663C12.9999 7.11454 12.552 6.66663 11.9999 6.66663C11.4478 6.66663 10.9999 7.11454 10.9999 7.66663C10.9999 7.97913 11.1458 8.25413 11.3687 8.43746L9.67075 11.4083C9.48533 11.7333 9.06867 11.8416 8.74992 11.65L7.24367 10.7458C7.29992 10.6208 7.33534 10.4812 7.33534 10.3333C7.33534 9.78121 6.88742 9.33329 6.33534 9.33329C5.78325 9.33329 5.33325 9.78121 5.33325 10.3333C5.33325 10.8854 5.78117 11.3333 6.33325 11.3333C6.38742 11.3333 6.44159 11.325 6.49367 11.3166L7.99992 15.3333H15.9999L17.5062 11.3166C17.5583 11.325 17.6124 11.3333 17.6666 11.3333C18.2187 11.3333 18.6666 10.8854 18.6666 10.3333C18.6666 9.78121 18.2187 9.33329 17.6666 9.33329Z" fill="white"/>
</g>
<defs>
<clipPath id="clip0_747_14908">
<rect width="13.3333" height="13.3333" fill="white" transform="translate(5.33325 5.33331)"/>
</clipPath>
</defs>
</svg>
